<?xml version="1.0" encoding="UTF-8" standalone="no"?>
<!DOCTYPE svg PUBLIC "-//W3C//DTD SVG 1.1//EN"
 "http://www.w3.org/Graphics/SVG/1.1/DTD/svg11.dtd">
<!-- Generated by graphviz version 2.38.0 (20140413.2041)
 -->
<!-- Title: graphname Pages: 1 -->
<svg width="1398pt" height="944pt"
 viewBox="0.00 0.00 1398.00 944.00" xmlns="http://www.w3.org/2000/svg" xmlns:xlink="http://www.w3.org/1999/xlink">
<g id="graph0" class="graph" transform="scale(1 1) rotate(0) translate(4 940)">
<title>graphname</title>
<polygon fill="white" stroke="none" points="-4,4 -4,-940 1394,-940 1394,4 -4,4"/>
<g id="clust1" class="cluster"><title>cluster_robot_0</title>
<polygon fill="none" stroke="black" stroke-width="2" points="560,-352 560,-427 1104,-427 1104,-352 560,-352"/>
<text text-anchor="middle" x="832" y="-411.8" font-family="Times,serif" font-size="14.00">robot_0</text>
</g>
<g id="clust2" class="cluster"><title>cluster_robot_1</title>
<polygon fill="none" stroke="black" stroke-width="2" points="8,-352 8,-427 552,-427 552,-352 8,-352"/>
<text text-anchor="middle" x="280" y="-411.8" font-family="Times,serif" font-size="14.00">robot_1</text>
</g>
<!-- t___robot_0__seg_path -->
<g id="node1" class="node"><title>t___robot_0__seg_path</title>
<g id="a_node1"><a xlink:href="topic_3A__robot_0__seg_path" xlink:title="topic:/robot_0/seg_path">
<polygon fill="none" stroke="black" points="930,-396 816,-396 816,-360 930,-360 930,-396"/>
<text text-anchor="middle" x="873" y="-374.3" font-family="Times,serif" font-size="14.00">/robot_0/seg_path</text>
</a>
</g>
</g>
<!-- n___controller -->
<g id="node11" class="node"><title>n___controller</title>
<g id="a_node11"><a xlink:href="__controller" xlink:title="/controller">
<ellipse fill="none" stroke="black" cx="625" cy="-558" rx="47.5" ry="18"/>
<text text-anchor="middle" x="625" y="-554.3" font-family="Times,serif" font-size="14.00">/controller</text>
</a>
</g>
</g>
<!-- t___robot_0__seg_path&#45;&gt;n___controller -->
<g id="edge2" class="edge"><title>t___robot_0__seg_path&#45;&gt;n___controller</title>
<path fill="none" stroke="black" d="M849.515,-396.155C836.926,-405.331 821.137,-416.81 807,-427 753.567,-465.512 691.039,-510.063 654.927,-535.742"/>
<polygon fill="black" stroke="black" points="652.459,-533.202 646.337,-541.848 656.515,-538.907 652.459,-533.202"/>
</g>
<!-- t___robot_0__cmd_vel -->
<g id="node2" class="node"><title>t___robot_0__cmd_vel</title>
<g id="a_node2"><a xlink:href="topic_3A__robot_0__cmd_vel" xlink:title="topic:/robot_0/cmd_vel">
<polygon fill="none" stroke="black" points="681.5,-396 568.5,-396 568.5,-360 681.5,-360 681.5,-396"/>
<text text-anchor="middle" x="625" y="-374.3" font-family="Times,serif" font-size="14.00">/robot_0/cmd_vel</text>
</a>
</g>
</g>
<!-- n___stageros -->
<g id="node12" class="node"><title>n___stageros</title>
<g id="a_node12"><a xlink:href="__stageros" xlink:title="/stageros">
<ellipse fill="none" stroke="black" cx="411" cy="-198" rx="42.4939" ry="18"/>
<text text-anchor="middle" x="411" y="-194.3" font-family="Times,serif" font-size="14.00">/stageros</text>
</a>
</g>
</g>
<!-- t___robot_0__cmd_vel&#45;&gt;n___stageros -->
<g id="edge3" class="edge"><title>t___robot_0__cmd_vel&#45;&gt;n___stageros</title>
<path fill="none" stroke="black" d="M604.481,-359.933C565.365,-327.397 480.196,-256.555 437.097,-220.707"/>
<polygon fill="black" stroke="black" points="439.238,-217.935 429.312,-214.231 434.762,-223.317 439.238,-217.935"/>
</g>
<!-- t___robot_0__path_unsynced -->
<g id="node3" class="node"><title>t___robot_0__path_unsynced</title>
<g id="a_node3"><a xlink:href="topic_3A__robot_0__path_unsynced" xlink:title="topic:/robot_0/path_unsynced">
<polygon fill="none" stroke="black" points="1095.5,-396 948.5,-396 948.5,-360 1095.5,-360 1095.5,-396"/>
<text text-anchor="middle" x="1022" y="-374.3" font-family="Times,serif" font-size="14.00">/robot_0/path_unsynced</text>
</a>
</g>
</g>
<!-- t___robot_0__odom -->
<g id="node4" class="node"><title>t___robot_0__odom</title>
<g id="a_node4"><a xlink:href="topic_3A__robot_0__odom" xlink:title="topic:/robot_0/odom">
<polygon fill="none" stroke="black" points="798,-396 700,-396 700,-360 798,-360 798,-396"/>
<text text-anchor="middle" x="749" y="-374.3" font-family="Times,serif" font-size="14.00">/robot_0/odom</text>
</a>
</g>
</g>
<!-- n___tuw_robot_router -->
<g id="node10" class="node"><title>n___tuw_robot_router</title>
<g id="a_node10"><a xlink:href="__tuw_robot_router" xlink:title="/tuw_robot_router">
<ellipse fill="none" stroke="black" cx="947" cy="-198" rx="74.9875" ry="18"/>
<text text-anchor="middle" x="947" y="-194.3" font-family="Times,serif" font-size="14.00">/tuw_robot_router</text>
</a>
</g>
</g>
<!-- t___robot_0__odom&#45;&gt;n___tuw_robot_router -->
<g id="edge4" class="edge"><title>t___robot_0__odom&#45;&gt;n___tuw_robot_router</title>
<path fill="none" stroke="black" d="M767.985,-359.933C803.647,-327.873 880.683,-258.618 921.081,-222.301"/>
<polygon fill="black" stroke="black" points="923.552,-224.786 928.649,-215.498 918.872,-219.58 923.552,-224.786"/>
</g>
<!-- t___robot_0__odom&#45;&gt;n___controller -->
<g id="edge5" class="edge"><title>t___robot_0__odom&#45;&gt;n___controller</title>
<path fill="none" stroke="black" d="M737.093,-396.092C715.178,-427.551 668.354,-494.766 642.703,-531.588"/>
<polygon fill="black" stroke="black" points="639.51,-530.048 636.666,-540.254 645.254,-534.05 639.51,-530.048"/>
</g>
<!-- t___robot_1__path_unsynced -->
<g id="node5" class="node"><title>t___robot_1__path_unsynced</title>
<g id="a_node5"><a xlink:href="topic_3A__robot_1__path_unsynced" xlink:title="topic:/robot_1/path_unsynced">
<polygon fill="none" stroke="black" points="543.5,-396 396.5,-396 396.5,-360 543.5,-360 543.5,-396"/>
<text text-anchor="middle" x="470" y="-374.3" font-family="Times,serif" font-size="14.00">/robot_1/path_unsynced</text>
</a>
</g>
</g>
<!-- t___robot_1__cmd_vel -->
<g id="node6" class="node"><title>t___robot_1__cmd_vel</title>
<g id="a_node6"><a xlink:href="topic_3A__robot_1__cmd_vel" xlink:title="topic:/robot_1/cmd_vel">
<polygon fill="none" stroke="black" points="129.5,-396 16.5,-396 16.5,-360 129.5,-360 129.5,-396"/>
<text text-anchor="middle" x="73" y="-374.3" font-family="Times,serif" font-size="14.00">/robot_1/cmd_vel</text>
</a>
</g>
</g>
<!-- t___robot_1__cmd_vel&#45;&gt;n___stageros -->
<g id="edge7" class="edge"><title>t___robot_1__cmd_vel&#45;&gt;n___stageros</title>
<path fill="none" stroke="black" d="M105.409,-359.933C169.191,-326.343 310.502,-251.925 376.183,-217.336"/>
<polygon fill="black" stroke="black" points="378.09,-220.287 385.307,-212.531 374.828,-214.094 378.09,-220.287"/>
</g>
<!-- t___robot_1__odom -->
<g id="node7" class="node"><title>t___robot_1__odom</title>
<g id="a_node7"><a xlink:href="topic_3A__robot_1__odom" xlink:title="topic:/robot_1/odom">
<polygon fill="none" stroke="black" points="246,-396 148,-396 148,-360 246,-360 246,-396"/>
<text text-anchor="middle" x="197" y="-374.3" font-family="Times,serif" font-size="14.00">/robot_1/odom</text>
</a>
</g>
</g>
<!-- t___robot_1__odom&#45;&gt;n___tuw_robot_router -->
<g id="edge8" class="edge"><title>t___robot_1__odom&#45;&gt;n___tuw_robot_router</title>
<path fill="none" stroke="black" d="M233.729,-359.932C240.704,-357.045 248.009,-354.257 255,-352 476.734,-280.414 749.086,-231.015 875.834,-210.15"/>
<polygon fill="black" stroke="black" points="876.504,-213.587 885.807,-208.518 875.373,-206.679 876.504,-213.587"/>
</g>
<!-- t___robot_1__odom&#45;&gt;n___controller -->
<g id="edge9" class="edge"><title>t___robot_1__odom&#45;&gt;n___controller</title>
<path fill="none" stroke="black" d="M214.32,-396.129C225.257,-406.201 240.095,-418.572 255,-427 361.984,-487.491 502.055,-527.31 575.362,-545.534"/>
<polygon fill="black" stroke="black" points="574.707,-548.977 585.253,-547.962 576.376,-542.179 574.707,-548.977"/>
</g>
<!-- t___robot_1__seg_path -->
<g id="node8" class="node"><title>t___robot_1__seg_path</title>
<g id="a_node8"><a xlink:href="topic_3A__robot_1__seg_path" xlink:title="topic:/robot_1/seg_path">
<polygon fill="none" stroke="black" points="378,-396 264,-396 264,-360 378,-360 378,-396"/>
<text text-anchor="middle" x="321" y="-374.3" font-family="Times,serif" font-size="14.00">/robot_1/seg_path</text>
</a>
</g>
</g>
<!-- t___robot_1__seg_path&#45;&gt;n___controller -->
<g id="edge10" class="edge"><title>t___robot_1__seg_path&#45;&gt;n___controller</title>
<path fill="none" stroke="black" d="M343.48,-396.134C356.272,-405.619 372.741,-417.397 388,-427 456.888,-470.351 541.215,-514.631 588.443,-538.684"/>
<polygon fill="black" stroke="black" points="586.877,-541.814 597.378,-543.219 590.045,-535.572 586.877,-541.814"/>
</g>
<!-- t___segments -->
<g id="node9" class="node"><title>t___segments</title>
<g id="a_node9"><a xlink:href="topic_3A__segments" xlink:title="topic:/segments">
<polygon fill="none" stroke="black" points="1279.5,-396 1208.5,-396 1208.5,-360 1279.5,-360 1279.5,-396"/>
<text text-anchor="middle" x="1244" y="-374.3" font-family="Times,serif" font-size="14.00">/segments</text>
</a>
</g>
</g>
<!-- t___segments&#45;&gt;n___tuw_robot_router -->
<g id="edge1" class="edge"><title>t___segments&#45;&gt;n___tuw_robot_router</title>
<path fill="none" stroke="black" d="M1215.52,-359.933C1160.97,-327.24 1041.89,-255.868 982.354,-220.189"/>
<polygon fill="black" stroke="black" points="984.05,-217.125 973.673,-214.986 980.452,-223.129 984.05,-217.125"/>
</g>
<!-- n___tuw_robot_router&#45;&gt;t___robot_0__seg_path -->
<g id="edge18" class="edge"><title>n___tuw_robot_router&#45;&gt;t___robot_0__seg_path</title>
<path fill="none" stroke="black" d="M939.926,-216.016C927.013,-247.076 899.535,-313.172 884.106,-350.286"/>
<polygon fill="black" stroke="black" points="880.702,-349.355 880.095,-359.933 887.166,-352.042 880.702,-349.355"/>
</g>
<!-- n___tuw_robot_router&#45;&gt;t___robot_0__path_unsynced -->
<g id="edge19" class="edge"><title>n___tuw_robot_router&#45;&gt;t___robot_0__path_unsynced</title>
<path fill="none" stroke="black" d="M954.17,-216.016C967.257,-247.076 995.106,-313.172 1010.74,-350.286"/>
<polygon fill="black" stroke="black" points="1007.7,-352.076 1014.81,-359.933 1014.15,-349.358 1007.7,-352.076"/>
</g>
<!-- n___tuw_robot_router&#45;&gt;t___robot_1__path_unsynced -->
<g id="edge20" class="edge"><title>n___tuw_robot_router&#45;&gt;t___robot_1__path_unsynced</title>
<path fill="none" stroke="black" d="M908.164,-213.492C823.635,-245.036 622.751,-319.999 525.137,-356.425"/>
<polygon fill="black" stroke="black" points="523.882,-353.157 515.737,-359.933 526.329,-359.716 523.882,-353.157"/>
</g>
<!-- n___tuw_robot_router&#45;&gt;t___robot_1__seg_path -->
<g id="edge21" class="edge"><title>n___tuw_robot_router&#45;&gt;t___robot_1__seg_path</title>
<path fill="none" stroke="black" d="M896.061,-211.308C797.262,-235.539 573.048,-292.286 388,-352 383.697,-353.389 379.262,-354.888 374.819,-356.439"/>
<polygon fill="black" stroke="black" points="373.376,-353.238 365.132,-359.893 375.726,-359.831 373.376,-353.238"/>
</g>
<!-- n___controller&#45;&gt;t___robot_0__cmd_vel -->
<g id="edge22" class="edge"><title>n___controller&#45;&gt;t___robot_0__cmd_vel</title>
<path fill="none" stroke="black" d="M625,-539.933C625,-508.966 625,-443.299 625,-406.129"/>
<polygon fill="black" stroke="black" points="628.5,-406.016 625,-396.016 621.5,-406.016 628.5,-406.016"/>
</g>
<!-- n___controller&#45;&gt;t___robot_1__cmd_vel -->
<g id="edge23" class="edge"><title>n___controller&#45;&gt;t___robot_1__cmd_vel</title>
<path fill="none" stroke="black" d="M581.216,-550.812C493.727,-537.278 292.526,-500.233 139,-427 125.549,-420.584 112.009,-411.336 100.724,-402.668"/>
<polygon fill="black" stroke="black" points="102.584,-399.676 92.5725,-396.208 98.2361,-405.162 102.584,-399.676"/>
</g>
<!-- t___robot_info -->
<g id="node17" class="node"><title>t___robot_info</title>
<g id="a_node17"><a xlink:href="topic_3A__robot_info" xlink:title="topic:/robot_info">
<polygon fill="none" stroke="black" points="1190.5,-396 1113.5,-396 1113.5,-360 1190.5,-360 1190.5,-396"/>
<text text-anchor="middle" x="1152" y="-374.3" font-family="Times,serif" font-size="14.00">/robot_info</text>
</a>
</g>
</g>
<!-- n___controller&#45;&gt;t___robot_info -->
<g id="edge24" class="edge"><title>n___controller&#45;&gt;t___robot_info</title>
<path fill="none" stroke="black" d="M670.932,-553.209C760.881,-544.021 964.017,-514.463 1108,-427 1117.66,-421.129 1126.49,-412.517 1133.67,-404.203"/>
<polygon fill="black" stroke="black" points="1136.4,-406.385 1140.01,-396.422 1130.98,-401.963 1136.4,-406.385"/>
</g>
<!-- n___stageros&#45;&gt;t___robot_0__odom -->
<g id="edge14" class="edge"><title>n___stageros&#45;&gt;t___robot_0__odom</title>
<path fill="none" stroke="black" d="M436.693,-212.531C494.802,-243.132 636.756,-317.889 707.506,-355.148"/>
<polygon fill="black" stroke="black" points="706.112,-358.37 716.591,-359.933 709.374,-352.176 706.112,-358.37"/>
</g>
<!-- n___stageros&#45;&gt;t___robot_1__odom -->
<g id="edge16" class="edge"><title>n___stageros&#45;&gt;t___robot_1__odom</title>
<path fill="none" stroke="black" d="M392.688,-214.231C355.301,-245.329 269.964,-316.31 225.354,-353.416"/>
<polygon fill="black" stroke="black" points="222.969,-350.847 217.519,-359.933 227.446,-356.229 222.969,-350.847"/>
</g>
<!-- t___tf -->
<g id="node14" class="node"><title>t___tf</title>
<g id="a_node14"><a xlink:href="topic_3A__tf" xlink:title="topic:/tf">
<polygon fill="none" stroke="black" points="438,-36 384,-36 384,-0 438,-0 438,-36"/>
<text text-anchor="middle" x="411" y="-14.3" font-family="Times,serif" font-size="14.00">/tf</text>
</a>
</g>
</g>
<!-- n___stageros&#45;&gt;t___tf -->
<g id="edge15" class="edge"><title>n___stageros&#45;&gt;t___tf</title>
<path fill="none" stroke="black" d="M411,-179.933C411,-148.966 411,-83.2989 411,-46.1292"/>
<polygon fill="black" stroke="black" points="414.5,-46.0157 411,-36.0157 407.5,-46.0158 414.5,-46.0157"/>
</g>
<!-- t___goals -->
<g id="node13" class="node"><title>t___goals</title>
<g id="a_node13"><a xlink:href="topic_3A__goals" xlink:title="topic:/goals">
<polygon fill="none" stroke="black" points="1390,-396 1336,-396 1336,-360 1390,-360 1390,-396"/>
<text text-anchor="middle" x="1363" y="-374.3" font-family="Times,serif" font-size="14.00">/goals</text>
</a>
</g>
</g>
<!-- t___goals&#45;&gt;n___tuw_robot_router -->
<g id="edge6" class="edge"><title>t___goals&#45;&gt;n___tuw_robot_router</title>
<path fill="none" stroke="black" d="M1336.44,-359.964C1331.71,-357.169 1326.76,-354.404 1322,-352 1209.21,-295.066 1070.01,-242.68 997.04,-216.506"/>
<polygon fill="black" stroke="black" points="998.214,-213.209 987.62,-213.141 995.86,-219.801 998.214,-213.209"/>
</g>
<!-- t___map -->
<g id="node15" class="node"><title>t___map</title>
<g id="a_node15"><a xlink:href="topic_3A__map" xlink:title="topic:/map">
<polygon fill="none" stroke="black" points="1285,-756 1231,-756 1231,-720 1285,-720 1285,-756"/>
<text text-anchor="middle" x="1258" y="-734.3" font-family="Times,serif" font-size="14.00">/map</text>
</a>
</g>
</g>
<!-- t___map&#45;&gt;n___tuw_robot_router -->
<g id="edge11" class="edge"><title>t___map&#45;&gt;n___tuw_robot_router</title>
<path fill="none" stroke="black" d="M1266.16,-719.847C1292.25,-662.307 1367.41,-472.983 1289,-352 1230.22,-261.313 1103.69,-223.894 1022.1,-208.798"/>
<polygon fill="black" stroke="black" points="1022.35,-205.287 1011.89,-206.982 1021.12,-212.179 1022.35,-205.287"/>
</g>
<!-- n___graph_generator -->
<g id="node16" class="node"><title>n___graph_generator</title>
<g id="a_node16"><a xlink:href="__graph_generator" xlink:title="/graph_generator">
<ellipse fill="none" stroke="black" cx="1209" cy="-558" rx="71" ry="18"/>
<text text-anchor="middle" x="1209" y="-554.3" font-family="Times,serif" font-size="14.00">/graph_generator</text>
</a>
</g>
</g>
<!-- t___map&#45;&gt;n___graph_generator -->
<g id="edge12" class="edge"><title>t___map&#45;&gt;n___graph_generator</title>
<path fill="none" stroke="black" d="M1253.3,-719.933C1244.78,-688.966 1226.7,-623.299 1216.47,-586.129"/>
<polygon fill="black" stroke="black" points="1219.71,-584.728 1213.68,-576.016 1212.96,-586.586 1219.71,-584.728"/>
</g>
<!-- n___graph_generator&#45;&gt;t___segments -->
<g id="edge25" class="edge"><title>n___graph_generator&#45;&gt;t___segments</title>
<path fill="none" stroke="black" d="M1212.36,-539.933C1218.44,-508.966 1231.36,-443.299 1238.67,-406.129"/>
<polygon fill="black" stroke="black" points="1242.16,-406.503 1240.65,-396.016 1235.29,-405.153 1242.16,-406.503"/>
</g>
<!-- t___robot_info&#45;&gt;n___tuw_robot_router -->
<g id="edge13" class="edge"><title>t___robot_info&#45;&gt;n___tuw_robot_router</title>
<path fill="none" stroke="black" d="M1132.34,-359.933C1095.34,-327.806 1015.33,-258.329 973.575,-222.074"/>
<polygon fill="black" stroke="black" points="975.846,-219.411 966,-215.498 971.256,-224.697 975.846,-219.411"/>
</g>
<!-- n___map_server -->
<g id="node18" class="node"><title>n___map_server</title>
<g id="a_node18"><a xlink:href="__map_server" xlink:title="/map_server">
<ellipse fill="none" stroke="black" cx="1258" cy="-918" rx="54.6905" ry="18"/>
<text text-anchor="middle" x="1258" y="-914.3" font-family="Times,serif" font-size="14.00">/map_server</text>
</a>
</g>
</g>
<!-- n___map_server&#45;&gt;t___map -->
<g id="edge17" class="edge"><title>n___map_server&#45;&gt;t___map</title>
<path fill="none" stroke="black" d="M1258,-899.933C1258,-868.966 1258,-803.299 1258,-766.129"/>
<polygon fill="black" stroke="black" points="1261.5,-766.016 1258,-756.016 1254.5,-766.016 1261.5,-766.016"/>
</g>
</g>
</svg>
